<svg xmlns="http://www.w3.org/2000/svg" width="132.435" height="38.708" viewBox="0 0 132.435 38.708"><defs><style>.a,.b{fill:none;}.b{stroke:#fff;}.c{fill:#fff;}</style></defs><g transform="translate(0.5 0.5)"><path class="a" d="M10347.514,4426.631a3.78,3.78,0,0,1-3.78,3.78H10219.87a3.786,3.786,0,0,1-3.79-3.78v-30.143a3.79,3.79,0,0,1,3.79-3.785h123.858a3.785,3.785,0,0,1,3.785,3.783h0v30.143Z" transform="translate(-10216.08 -4392.703)"/><path class="b" d="M10347.514,4426.631a3.78,3.78,0,0,1-3.78,3.78H10219.87a3.786,3.786,0,0,1-3.79-3.78v-30.143a3.79,3.79,0,0,1,3.79-3.785h123.858a3.785,3.785,0,0,1,3.785,3.783h0v30.143Z" transform="translate(-10216.08 -4392.703)"/><path class="c" d="M10252.059,4414.533a5.719,5.719,0,0,1,2.726-4.8,5.861,5.861,0,0,0-4.616-2.5c-1.941-.2-3.826,1.162-4.814,1.162-1.009,0-2.531-1.142-4.174-1.108a6.145,6.145,0,0,0-5.173,3.154c-2.237,3.872-.568,9.562,1.574,12.691,1.073,1.533,2.325,3.244,3.965,3.184,1.6-.065,2.2-1.021,4.14-1.021,1.917,0,2.48,1.021,4.152.983,1.722-.027,2.807-1.54,3.841-3.086a12.646,12.646,0,0,0,1.755-3.576,5.536,5.536,0,0,1-3.375-5.087Zm-3.159-9.354a5.631,5.631,0,0,0,1.29-4.036,5.742,5.742,0,0,0-3.711,1.919,5.36,5.36,0,0,0-1.322,3.886,4.737,4.737,0,0,0,3.743-1.77Z" transform="translate(-10225.195 -4395.887)"/><g transform="translate(39.109 12.025)"><path class="c" d="M10292.137,4423.2h-2.063l-1.132-3.554h-3.933l-1.077,3.554h-2.011l3.9-12.1h2.406l3.913,12.1Zm-3.535-5.045-1.023-3.159q-.163-.485-.611-2.28h-.037q-.177.773-.573,2.28l-1.006,3.159Zm13.537.575a4.942,4.942,0,0,1-1.209,3.518,3.544,3.544,0,0,1-2.689,1.149,2.692,2.692,0,0,1-2.492-1.237v4.578h-1.938v-9.395q0-1.4-.073-2.867h1.706l.107,1.382h.037a3.449,3.449,0,0,1,5.521-.342,4.817,4.817,0,0,1,1.031,3.214Zm-1.975.072a3.6,3.6,0,0,0-.575-2.1,1.986,1.986,0,0,0-1.687-.861,2.014,2.014,0,0,0-1.3.476,2.21,2.21,0,0,0-.764,1.249,2.609,2.609,0,0,0-.091.589v1.456a2.339,2.339,0,0,0,.585,1.608,1.938,1.938,0,0,0,1.517.655,1.988,1.988,0,0,0,1.705-.843A3.71,3.71,0,0,0,10300.164,4418.8Zm12.012-.072a4.933,4.933,0,0,1-1.21,3.518,3.546,3.546,0,0,1-2.69,1.149,2.69,2.69,0,0,1-2.491-1.237v4.578h-1.939v-9.395q0-1.4-.071-2.867h1.7l.108,1.382h.038a3.45,3.45,0,0,1,5.521-.342,4.832,4.832,0,0,1,1.03,3.214Zm-1.976.072a3.6,3.6,0,0,0-.576-2.1,1.983,1.983,0,0,0-1.687-.861,2.025,2.025,0,0,0-1.3.476,2.207,2.207,0,0,0-.762,1.249,2.612,2.612,0,0,0-.091.589v1.456a2.342,2.342,0,0,0,.583,1.608,1.942,1.942,0,0,0,1.519.655,1.987,1.987,0,0,0,1.705-.843A3.723,3.723,0,0,0,10310.2,4418.8Zm13.2,1a3.227,3.227,0,0,1-1.075,2.513,4.767,4.767,0,0,1-3.3,1.06,5.756,5.756,0,0,1-3.134-.754l.448-1.616a5.4,5.4,0,0,0,2.8.754,2.646,2.646,0,0,0,1.705-.494,1.615,1.615,0,0,0,.611-1.318,1.689,1.689,0,0,0-.5-1.239,4.66,4.66,0,0,0-1.669-.932q-3.179-1.185-3.179-3.466a3.059,3.059,0,0,1,1.122-2.441,4.437,4.437,0,0,1,2.971-.952,5.876,5.876,0,0,1,2.748.575l-.487,1.58a4.8,4.8,0,0,0-2.325-.557,2.362,2.362,0,0,0-1.6.5,1.437,1.437,0,0,0-.488,1.1,1.486,1.486,0,0,0,.558,1.185,6.316,6.316,0,0,0,1.759.933,5.963,5.963,0,0,1,2.3,1.471,3.069,3.069,0,0,1,.738,2.1Zm6.428-3.876h-2.138v4.236q0,1.615,1.132,1.614a3.406,3.406,0,0,0,.861-.09l.053,1.472a4.386,4.386,0,0,1-1.508.214,2.324,2.324,0,0,1-1.8-.7,3.439,3.439,0,0,1-.646-2.352v-4.4h-1.272v-1.455h1.272v-1.6l1.9-.574v2.171h2.138v1.458Zm9.622,2.835a4.782,4.782,0,0,1-1.149,3.3,4.1,4.1,0,0,1-3.2,1.328,3.907,3.907,0,0,1-3.062-1.272,4.64,4.64,0,0,1-1.139-3.213,4.743,4.743,0,0,1,1.175-3.32,4.074,4.074,0,0,1,3.17-1.292,3.987,3.987,0,0,1,3.087,1.274,4.583,4.583,0,0,1,1.114,3.193Zm-2.01.045a3.9,3.9,0,0,0-.52-2.059,1.917,1.917,0,0,0-1.742-1.039,1.945,1.945,0,0,0-1.777,1.039,3.969,3.969,0,0,0-.521,2.095,3.889,3.889,0,0,0,.521,2.059,1.988,1.988,0,0,0,3.5-.017,3.92,3.92,0,0,0,.535-2.078Zm8.314-2.63a3.385,3.385,0,0,0-.61-.054,1.83,1.83,0,0,0-1.581.773,2.909,2.909,0,0,0-.484,1.723v4.577h-1.937v-5.977q0-1.373-.057-2.746h1.688l.07,1.668h.054a2.993,2.993,0,0,1,.97-1.383,2.344,2.344,0,0,1,1.4-.467,3.084,3.084,0,0,1,.484.036l0,1.849Zm8.671,2.245a4.656,4.656,0,0,1-.071.879h-5.815a2.527,2.527,0,0,0,.844,1.976,2.883,2.883,0,0,0,1.9.609,6.448,6.448,0,0,0,2.354-.412l.3,1.344a7.285,7.285,0,0,1-2.927.539,4.238,4.238,0,0,1-3.187-1.193,4.4,4.4,0,0,1-1.159-3.2,4.992,4.992,0,0,1,1.08-3.283,3.713,3.713,0,0,1,3.049-1.4,3.251,3.251,0,0,1,2.857,1.4,4.707,4.707,0,0,1,.77,2.744Zm-1.849-.5a2.625,2.625,0,0,0-.376-1.49,1.7,1.7,0,0,0-1.546-.809,1.839,1.839,0,0,0-1.542.79,2.9,2.9,0,0,0-.574,1.508l4.038,0Z" transform="translate(-10281.921 -4410.925)"/></g></g></svg>