<svg xmlns="http://www.w3.org/2000/svg" width="132.431" height="38.625" viewBox="0 0 132.431 38.625"><defs><style>.a{fill:none;stroke:#fff;}.b,.c{fill:#fff;}.c{stroke:rgba(0,0,0,0);stroke-miterlimit:10;}</style></defs><g transform="translate(0.501 0.5)"><path class="a" d="M10563.358,4430.437h-121.694a4.742,4.742,0,0,1-4.867-4.7v-28.219a4.741,4.741,0,0,1,4.867-4.7h121.694a4.741,4.741,0,0,1,4.869,4.7v28.219A4.742,4.742,0,0,1,10563.358,4430.437Z" transform="translate(-10436.798 -4392.812)"/><path class="b" d="M10524.267,4417.757a3.957,3.957,0,0,0-4.045,4.044,4.014,4.014,0,0,0,4.045,4.044,3.956,3.956,0,0,0,4.044-4.044A3.9,3.9,0,0,0,10524.267,4417.757Zm0,6.4a2.453,2.453,0,0,1,0-4.891,2.279,2.279,0,0,1,2.258,2.445A2.335,2.335,0,0,1,10524.267,4424.153Zm-8.748-6.4a3.957,3.957,0,0,0-4.044,4.044,4.014,4.014,0,0,0,4.044,4.044,3.957,3.957,0,0,0,4.045-4.044A3.9,3.9,0,0,0,10515.519,4417.757Zm0,6.4a2.453,2.453,0,0,1,0-4.891,2.279,2.279,0,0,1,2.258,2.445A2.335,2.335,0,0,1,10515.519,4424.153Zm-10.44-5.173v1.693h4.044a3.553,3.553,0,0,1-.94,2.164,4.161,4.161,0,0,1-3.1,1.223,4.379,4.379,0,0,1-4.421-4.515,4.437,4.437,0,0,1,4.421-4.515,4.661,4.661,0,0,1,3.1,1.223l1.223-1.223a6.025,6.025,0,0,0-4.232-1.693,6.209,6.209,0,1,0,0,12.416,5.412,5.412,0,0,0,4.326-1.787,5.658,5.658,0,0,0,1.506-3.95,3.537,3.537,0,0,0-.094-1.035Zm42.7,1.317a3.656,3.656,0,0,0-3.387-2.54,3.788,3.788,0,0,0-3.763,4.044,3.935,3.935,0,0,0,3.95,4.044,3.86,3.86,0,0,0,3.293-1.787l-1.316-.94a2.3,2.3,0,0,1-1.977,1.128,2.041,2.041,0,0,1-1.976-1.223l5.362-2.258-.187-.47Zm-5.457,1.316a2.285,2.285,0,0,1,2.07-2.351,1.664,1.664,0,0,1,1.5.846l-3.575,1.5Zm-4.42,3.856h1.787v-11.758h-1.787Zm-2.822-6.867a3.1,3.1,0,0,0-2.163-.94,4.042,4.042,0,0,0-3.856,4.044,3.9,3.9,0,0,0,3.856,3.951,2.7,2.7,0,0,0,2.069-.94h.094v.564a2.138,2.138,0,0,1-4.139.941l-1.5.658a3.88,3.88,0,0,0,3.575,2.351c2.068,0,3.762-1.223,3.762-4.139v-7.148h-1.693v.658Zm-2.068,5.55a2.453,2.453,0,0,1,0-4.891,2.464,2.464,0,0,1,0,4.891Zm22.95-10.441h-4.232v11.758h1.787v-4.421h2.445a3.673,3.673,0,1,0,0-7.337Zm.094,5.644h-2.539v-4.044h2.539a2.066,2.066,0,0,1,2.069,1.975,2.153,2.153,0,0,1-2.069,2.069Zm10.817-1.693a3.163,3.163,0,0,0-3.1,1.788l1.6.658a1.661,1.661,0,0,1,1.6-.846,1.768,1.768,0,0,1,1.882,1.5v.094a3.734,3.734,0,0,0-1.787-.47c-1.693,0-3.387.94-3.387,2.634a2.756,2.756,0,0,0,2.916,2.633,2.651,2.651,0,0,0,2.258-1.128h.094v.94h1.692v-4.515a3.559,3.559,0,0,0-3.762-3.292Zm-.188,6.491c-.564,0-1.41-.282-1.41-1.035,0-.941,1.034-1.223,1.881-1.223a3.646,3.646,0,0,1,1.6.376A2.192,2.192,0,0,1,10566.688,4424.153Zm9.877-6.208-1.976,5.08h-.094l-2.069-5.08h-1.882l3.1,7.148-1.787,3.951h1.787l4.8-11.1Zm-15.8,7.525h1.788v-11.758h-1.788Z" transform="translate(-10460.211 -4400.553)"/><g transform="translate(7.806 8.279)"><path class="c" d="M.393,20.773h0l0,0a1.548,1.548,0,0,1-.39-1.1V1.017A1.75,1.75,0,0,1,.23,0L10.747,10.347v.074L.394,20.772Z"/></g><g transform="translate(20.49 15.277)"><path class="c" d="M3.367,6.875h0L0,3.507V3.347L3.348,0,3.36.016l4.148,2.37A1.39,1.39,0,0,1,8.34,3.512a1.383,1.383,0,0,1-.827,1.124L3.367,6.874Z" transform="translate(0)"/></g><g transform="translate(9.094 19.719)"><path class="c" d="M.644,10.606A.981.981,0,0,1,0,10.386L10.386,0l3.358,3.361L1.555,10.372A2.279,2.279,0,0,1,.644,10.606Z" transform="translate(0 0)"/></g><g transform="translate(9.094 7.051)"><path class="c" d="M10.384,10.555h0L0,.253A1.038,1.038,0,0,1,.682,0,1.817,1.817,0,0,1,1.55.264L13.742,7.2l-3.357,3.358Z"/></g></g></svg>