<svg xmlns="http://www.w3.org/2000/svg" width="21.56" height="21.56" viewBox="0 0 21.56 21.56"><defs><style>.a{fill:#fff;}</style></defs><path class="a" d="M-62.427-1560.159a4.065,4.065,0,0,0-.984-1.512,4.071,4.071,0,0,0-1.512-.983,7.271,7.271,0,0,0-2.442-.453c-1.387-.063-1.8-.077-5.313-.077s-3.927.013-5.313.077a7.273,7.273,0,0,0-2.442.453,4.073,4.073,0,0,0-1.512.983,4.073,4.073,0,0,0-.984,1.512,7.282,7.282,0,0,0-.453,2.442c-.063,1.386-.077,1.8-.077,5.313s.014,3.927.077,5.313a7.284,7.284,0,0,0,.453,2.442,4.071,4.071,0,0,0,.984,1.512,4.074,4.074,0,0,0,1.512.984,7.277,7.277,0,0,0,2.442.453c1.386.063,1.8.077,5.313.077s3.927-.014,5.313-.077a7.274,7.274,0,0,0,2.442-.453,4.072,4.072,0,0,0,1.512-.984,4.064,4.064,0,0,0,.984-1.512,7.276,7.276,0,0,0,.453-2.442c.063-1.386.077-1.8.077-5.313s-.014-3.927-.077-5.313A7.274,7.274,0,0,0-62.427-1560.159Zm-10.25,14.507a6.752,6.752,0,0,1-6.752-6.752,6.752,6.752,0,0,1,6.752-6.752,6.752,6.752,0,0,1,6.752,6.752A6.752,6.752,0,0,1-72.677-1545.651Zm7.019-12.193a1.578,1.578,0,0,1-1.578-1.578A1.578,1.578,0,0,1-65.658-1561a1.578,1.578,0,0,1,1.578,1.578A1.578,1.578,0,0,1-65.658-1557.845Z" transform="translate(83.457 1563.184)"/><circle class="a" cx="4.383" cy="4.383" r="4.383" transform="matrix(0.29, -0.957, 0.957, 0.29, 5.315, 13.705)"/></svg>