<svg xmlns="http://www.w3.org/2000/svg" width="149.177" height="71.744" viewBox="0 0 149.177 71.744"><defs><style>.a{fill:#fff;}.b{fill:#05bcac;}</style></defs><g transform="translate(-3641.987 -2329.104)"><g transform="translate(3641.987 2329.104)"><rect class="a" width="71.744" height="71.744" rx="8.567"/></g><g transform="translate(3659.427 2345.652)"><path class="b" d="M3703.123,2357.313a5.179,5.179,0,1,0-10.359,0v11.055a1.219,1.219,0,0,0,2.438,0v-11.055a2.742,2.742,0,1,1,5.484,0v28.477a2.847,2.847,0,0,1-.015.287,2.571,2.571,0,0,1-4.708,1.341c-.023-.031-.037-.052-.037-.052l-19.946-32.336a5.553,5.553,0,0,0-4.542-2.9,5.185,5.185,0,0,0-5.179,5.179v21.47a5.179,5.179,0,0,0,10.359.017l.026-10.615a1.22,1.22,0,0,0-1.2-1.236h-.018a1.218,1.218,0,0,0-1.218,1.2l-.027,10.632a2.742,2.742,0,0,1-5.484,0v-21.47a2.745,2.745,0,0,1,2.742-2.742,3.181,3.181,0,0,1,2.407,1.635c.012.022.025.045.038.067l19.961,32.359a4.341,4.341,0,0,0,.337.455,5.038,5.038,0,0,0,1.214,1.093,4.594,4.594,0,0,0,2.191.771c.044,0,.464.026.516.026a5.021,5.021,0,0,0,5.021-5.021v-28.643Z" transform="translate(-3666.258 -2352.134)"/></g><g transform="translate(3724.445 2340.73)"><path class="a" d="M3759.142,2351.905v4.308a.805.805,0,0,1-.839.8.724.724,0,0,1-.7-.8v-6.555a.774.774,0,0,1,.7-.8.961.961,0,0,1,.734.419l2.562,3.458,2.654-3.586a.756.756,0,0,1,1.328.512v6.555a.724.724,0,0,1-.7.8.732.732,0,0,1-.745-.8v-4.308l-1.932,2.445a.766.766,0,0,1-1.328,0Z" transform="translate(-3756.985 -2346.289)"/><path class="a" d="M3778.008,2356.012a.822.822,0,0,1-.373-1.118l3.342-6.532a.788.788,0,0,1,1.444,0l3.284,6.532c.477.908-.931,1.63-1.35.722l-.512-1.025h-4.3l-.5,1.025A.874.874,0,0,1,3778.008,2356.012Zm5.007-2.958-1.316-2.876-1.432,2.876Zm-1.048-7.615c.757-.559,1.572.535.861,1.059l-1.245.827a.645.645,0,1,1-.734-1.06Z" transform="translate(-3762.596 -2345.284)"/><path class="a" d="M3797.591,2350.6c.268-2.258,3.68-2.667,5.287-1.432a.682.682,0,1,1-.745,1.142c-.862-.548-2.818-.8-3.062.407-.314,1.91,4.751.815,4.669,3.913-.081,2.958-4.367,3.028-5.973,1.7a.862.862,0,0,1-.163-1.141.687.687,0,0,1,1.037-.081c.955.652,3.412,1.141,3.586-.512C3802.074,2352.872,3797.23,2353.908,3797.591,2350.6Z" transform="translate(-3768.202 -2346.185)"/><path class="a" d="M3759.1,2367.955v1.852h2.969a.9.9,0,0,1,.839.827.809.809,0,0,1-.839.7H3759.1v2.445a.691.691,0,0,1-.7.721.741.741,0,0,1-.827-.721v-6.614a.735.735,0,0,1,.827-.722h4.087a.725.725,0,0,1,.815.722.8.8,0,0,1-.815.792Z" transform="translate(-3756.976 -2351.239)"/><path class="a" d="M3774.393,2373.453a.82.82,0,0,1-.372-1.117l3.342-6.532a.788.788,0,0,1,1.444,0l3.284,6.532c.477.908-.932,1.63-1.351.722l-.512-1.025h-4.3l-.5,1.025A.874.874,0,0,1,3774.393,2373.453Zm5.008-2.958-1.316-2.875-1.432,2.875Zm-1.048-7.615c.757-.559,1.572.535.862,1.059l-1.245.827a.645.645,0,1,1-.734-1.06Z" transform="translate(-3761.579 -2350.193)"/><path class="a" d="M3793.817,2370.33a3.919,3.919,0,0,1,4.087-4.18,3.809,3.809,0,0,1,2.667,1.036.755.755,0,1,1-1.036,1.094,2.017,2.017,0,0,0-1.63-.64,2.516,2.516,0,0,0-2.654,2.689,2.561,2.561,0,0,0,2.654,2.771,2.711,2.711,0,0,0,1.816-.745.784.784,0,0,1,1.071.14.8.8,0,0,1-.128,1.094,4.227,4.227,0,0,1-6.847-3.261Z" transform="translate(-3767.177 -2351.157)"/><path class="a" d="M3813.2,2367.128a.77.77,0,0,1,1.537,0v6.649a.769.769,0,0,1-1.537,0Z" transform="translate(-3772.633 -2351.227)"/><path class="a" d="M3825.2,2367.136a.725.725,0,0,1,.733-.711.709.709,0,0,1,.687.711v5.833h3.167a.769.769,0,1,1,0,1.526h-3.854a.7.7,0,0,1-.733-.71Z" transform="translate(-3776.009 -2351.234)"/><path class="a" d="M3837,2375.711a.722.722,0,0,1,.768.745,3.383,3.383,0,0,1-.315,1.421c-.337.78-1.7.571-1.269-.524v-.14c0-.21.011-.594.011-.757A.709.709,0,0,1,3837,2375.711Z" transform="translate(-3779.078 -2353.848)"/><path class="a" d="M3757.6,2384.542a.8.8,0,0,1,.792-.8h2.689a2.911,2.911,0,0,1,0,5.822h-1.944v1.537a.732.732,0,0,1-.745.8.787.787,0,0,1-.792-.8Zm1.537.663v2.9h1.944a1.451,1.451,0,0,0,0-2.9Z" transform="translate(-3756.985 -2356.107)"/><path class="a" d="M3775.22,2391.916a.821.821,0,0,1-.372-1.117l3.342-6.532a.788.788,0,0,1,1.444,0l3.284,6.532c.477.908-.932,1.63-1.351.722l-.511-1.025h-4.3l-.5,1.025A.875.875,0,0,1,3775.22,2391.916Zm5.008-2.958-1.316-2.876-1.432,2.876Z" transform="translate(-3761.812 -2356.123)"/><path class="a" d="M3796.6,2391.184a.774.774,0,0,1-1.549.023v-6.614a.7.7,0,0,1,.7-.711h3.1a2.587,2.587,0,0,1,1.095,4.949l1.549,1.886a.786.786,0,1,1-1.3.873l-1.758-2.515H3796.6Zm0-3.447h2.247a1.224,1.224,0,0,0,0-2.445H3796.6Z" transform="translate(-3767.524 -2356.148)"/><path class="a" d="M3813.053,2391.916a.821.821,0,0,1-.372-1.117l3.342-6.532a.788.788,0,0,1,1.444,0l3.284,6.532c.477.908-.932,1.63-1.351.722l-.511-1.025h-4.3l-.5,1.025A.874.874,0,0,1,3813.053,2391.916Zm5.008-2.958-1.316-2.876-1.432,2.876Z" transform="translate(-3772.459 -2356.123)"/><path class="a" d="M3759.54,2402.768H3757.5a.745.745,0,1,1,0-1.49h5.508a.746.746,0,1,1,0,1.49h-1.933v5.88a.768.768,0,1,1-1.537,0Z" transform="translate(-3756.742 -2361.043)"/><path class="a" d="M3778.9,2409.385a4.064,4.064,0,0,1-4.39-4.192,4.279,4.279,0,0,1,8.558,0A4.061,4.061,0,0,1,3778.9,2409.385Zm-.129-6.951a2.76,2.76,0,1,0,2.771,2.759A2.665,2.665,0,0,0,3778.773,2402.434Z" transform="translate(-3761.743 -2360.943)"/><path class="a" d="M3796.664,2409.383a.728.728,0,0,1-.8-.722v-6.613a.791.791,0,0,1,.8-.722h2.666c5.322,0,5.205,8.058.1,8.058Zm.733-6.637v5.217h1.933c3.144,0,3.284-5.217,0-5.217Z" transform="translate(-3767.752 -2361.057)"/><path class="a" d="M3819.54,2409.385a4.065,4.065,0,0,1-4.391-4.192,4.279,4.279,0,0,1,8.559,0A4.061,4.061,0,0,1,3819.54,2409.385Zm-.129-6.951a2.76,2.76,0,1,0,2.771,2.759A2.665,2.665,0,0,0,3819.411,2402.434Z" transform="translate(-3773.18 -2360.943)"/><path class="a" d="M3836.25,2402.927c.268-2.259,3.68-2.667,5.286-1.432a.682.682,0,1,1-.745,1.141c-.861-.548-2.818-.8-3.062.407-.314,1.91,4.751.815,4.669,3.913-.081,2.958-4.367,3.027-5.973,1.7a.862.862,0,0,1-.163-1.141.687.687,0,0,1,1.037-.082c.955.653,3.412,1.141,3.586-.512C3840.733,2405.2,3835.889,2406.234,3836.25,2402.927Z" transform="translate(-3779.082 -2360.912)"/><path class="a" d="M3847.244,2410.822a.847.847,0,0,1,1.689,0v.221a.846.846,0,0,1-1.689,0Z" transform="translate(-3782.213 -2363.508)"/></g></g></svg>